<?xml version="1.0" standalone="no"?>
<!DOCTYPE svg PUBLIC "-//W3C//DTD SVG 20010904//EN"
 "http://www.w3.org/TR/2001/REC-SVG-20010904/DTD/svg10.dtd">
<svg version="1.0" xmlns="http://www.w3.org/2000/svg"
 width="1048.000000pt" height="1024.000000pt" viewBox="0 0 1048.000000 1024.000000"
 preserveAspectRatio="xMidYMid meet">

<g transform="translate(0.000000,1024.000000) scale(0.100000,-0.100000)"
fill="#000000" stroke="none">
<path d="M5065 10110 c-88 -4 -200 -12 -250 -19 -49 -6 -126 -15 -170 -21 -88
-11 -215 -33 -285 -49 -25 -5 -90 -19 -145 -31 -55 -12 -122 -28 -150 -36
-175 -49 -306 -87 -345 -99 -158 -51 -304 -102 -357 -127 -34 -15 -64 -28 -67
-28 -16 0 -399 -187 -500 -245 -43 -24 -88 -47 -100 -51 -29 -10 -338 -219
-474 -323 -63 -47 -133 -99 -156 -115 -103 -72 -527 -479 -657 -631 -47 -55
-106 -125 -130 -156 -24 -31 -73 -92 -108 -135 -69 -87 -148 -197 -198 -277
-18 -29 -40 -63 -50 -77 -64 -88 -320 -587 -369 -720 -13 -36 -28 -74 -34 -85
-34 -74 -75 -184 -130 -345 -64 -191 -141 -497 -175 -700 -2 -14 -6 -36 -9
-50 -68 -347 -78 -1049 -20 -1420 44 -286 82 -479 118 -600 9 -30 21 -77 27
-105 5 -27 14 -59 19 -70 4 -11 20 -60 35 -110 15 -49 31 -94 35 -100 4 -5 20
-46 35 -90 15 -44 30 -84 35 -90 4 -5 24 -53 45 -105 62 -155 238 -504 309
-615 18 -27 59 -90 90 -140 206 -322 482 -647 816 -960 390 -367 881 -691
1385 -917 94 -42 179 -78 190 -81 11 -3 52 -18 90 -32 326 -123 780 -241 1070
-279 66 -9 174 -23 240 -32 158 -21 636 -30 820 -15 326 25 528 55 843 125
140 31 347 89 442 124 25 9 63 22 85 28 108 32 332 117 435 164 187 86 478
237 540 280 14 10 48 29 75 43 69 34 288 182 415 280 58 45 134 103 170 131
199 152 646 602 810 816 19 25 40 50 46 55 46 39 235 318 386 570 67 111 233
449 285 580 63 157 170 459 190 535 55 215 109 471 132 625 9 66 15 108 42
310 6 44 13 220 16 391 4 252 2 338 -11 460 -21 181 -60 445 -80 534 -74 325
-77 336 -155 575 -84 256 -263 664 -358 817 -13 21 -37 64 -54 95 -57 105
-231 367 -325 489 -187 244 -523 604 -718 770 -39 32 -86 73 -105 90 -20 17
-54 44 -76 60 -22 16 -65 49 -95 73 -72 58 -477 325 -571 376 -40 22 -107 59
-149 83 -41 24 -91 50 -110 58 -19 9 -71 33 -115 54 -44 21 -114 52 -155 70
-41 17 -89 38 -105 45 -50 23 -174 66 -275 97 -397 121 -491 145 -840 213 -68
14 -152 25 -400 54 -121 14 -507 20 -695 11z m604 -230 c397 -36 662 -79 891
-143 30 -9 91 -25 135 -37 253 -67 729 -259 967 -391 421 -233 819 -524 1126
-823 84 -81 347 -366 407 -440 217 -270 456 -660 602 -981 105 -231 161 -385
233 -633 69 -238 138 -578 154 -757 3 -27 10 -102 16 -165 6 -63 12 -191 13
-285 8 -511 -67 -997 -243 -1570 -28 -92 -97 -271 -137 -355 -19 -41 -43 -95
-53 -120 -26 -64 -91 -193 -164 -323 -144 -257 -168 -298 -210 -355 -25 -33
-52 -74 -60 -91 -9 -17 -20 -31 -24 -31 -4 0 -16 -13 -25 -30 -19 -31 -192
-250 -246 -310 -187 -208 -304 -328 -411 -420 -41 -36 -97 -85 -125 -110 -67
-61 -123 -109 -170 -146 -22 -17 -65 -52 -95 -76 -30 -24 -80 -61 -110 -81
-30 -20 -77 -52 -105 -70 -199 -135 -548 -335 -627 -359 -21 -6 -38 -15 -38
-20 0 -4 -5 -8 -11 -8 -14 0 -202 -81 -209 -90 -3 -3 -21 -11 -40 -17 -57 -18
-273 -102 -292 -113 -10 -5 -23 -10 -30 -10 -12 0 -122 -32 -259 -75 -111 -35
-373 -92 -459 -100 -41 -4 -106 -13 -143 -21 -38 -8 -88 -14 -112 -14 -24 0
-47 -5 -50 -11 -4 -6 -14 -8 -23 -4 -8 3 -49 1 -91 -5 -42 -6 -159 -12 -261
-15 -102 -2 -189 -4 -195 -5 -12 -1 -405 20 -450 25 -16 1 -37 5 -45 8 -18 6
-156 20 -189 18 -12 0 -28 2 -35 6 -6 4 -15 8 -21 9 -5 1 -50 7 -99 13 -50 7
-93 14 -96 16 -6 4 -101 23 -180 38 -14 2 -79 20 -145 39 -66 20 -142 41 -170
48 -27 7 -54 17 -60 21 -5 5 -19 9 -32 9 -13 0 -23 4 -23 9 0 5 -15 13 -32 17
-18 3 -46 13 -63 20 -16 7 -64 25 -105 40 -41 16 -84 34 -95 40 -11 7 -45 22
-75 34 -99 38 -353 162 -474 230 -78 44 -275 173 -466 307 -230 160 -641 543
-840 783 -25 30 -52 62 -61 71 -48 49 -221 288 -312 431 -140 221 -316 562
-402 780 -31 78 -60 152 -65 163 -36 82 -111 343 -164 575 -118 516 -141 1131
-62 1670 26 173 36 227 77 400 81 338 174 610 334 969 91 204 320 601 435 751
15 19 44 64 65 100 21 36 59 86 84 112 25 25 71 74 101 109 194 221 380 409
521 526 26 21 87 72 136 113 218 182 403 308 753 512 132 78 208 118 222 118
6 0 38 13 72 29 34 16 86 39 116 51 30 12 69 28 85 36 84 37 435 162 535 190
30 8 80 22 110 31 132 37 313 73 499 99 63 8 117 17 120 19 3 1 49 6 101 10
52 4 122 10 155 15 92 11 584 11 714 0z"/>
<path d="M5240 9600 c-12 -8 -16 -52 -21 -257 -4 -160 -2 -253 4 -261 6 -8 25
-12 46 -10 34 3 36 5 43 48 3 25 7 104 8 175 l1 130 22 -29 c12 -16 56 -95 97
-175 68 -131 78 -146 108 -155 21 -6 41 -5 56 2 24 10 24 11 31 244 4 128 6
244 4 258 -3 21 -10 25 -43 28 -24 2 -42 -2 -47 -10 -5 -7 -9 -74 -10 -148 0
-74 -4 -143 -8 -153 -5 -14 -26 19 -85 135 -43 84 -87 161 -98 171 -22 18 -83
23 -108 7z"/>
<path d="M4864 9589 c-30 -9 -31 -12 -72 -171 -23 -90 -54 -207 -68 -260 -28
-104 -25 -128 18 -128 39 0 56 19 69 75 7 30 17 59 23 64 6 4 48 11 94 14 l82
6 23 -37 c12 -21 27 -47 33 -57 8 -14 24 -21 51 -23 73 -5 71 1 -100 361 -42
86 -80 157 -86 157 -5 0 -15 2 -23 4 -7 2 -27 0 -44 -5z m80 -234 c19 -38 32
-73 30 -77 -3 -5 -32 -8 -64 -8 l-59 0 6 33 c3 17 9 39 13 47 4 8 11 32 14 54
9 47 15 42 60 -49z"/>
<path d="M5920 9561 c-78 -26 -137 -79 -171 -156 -32 -72 -33 -192 -1 -257 44
-90 157 -145 279 -135 95 7 108 20 122 119 7 46 14 95 16 109 8 53 -14 64
-167 85 -45 6 -47 5 -54 -20 -9 -39 1 -54 43 -62 67 -12 75 -20 68 -67 -12
-76 -12 -77 -61 -77 -101 0 -164 65 -164 169 0 179 143 265 282 171 53 -37 66
-37 79 -3 14 36 -12 70 -76 101 -51 25 -153 37 -195 23z"/>
<path d="M4558 9555 c-3 -3 -41 -12 -84 -20 -165 -31 -228 -45 -237 -54 -5 -5
-7 -21 -5 -37 3 -26 7 -29 42 -32 21 -2 52 2 68 9 18 7 33 8 39 2 5 -5 27 -97
49 -204 22 -107 43 -202 46 -211 7 -22 52 -24 79 -4 17 12 17 18 6 77 -7 35
-15 73 -17 84 -3 11 -7 34 -10 50 -3 17 -14 72 -24 124 -11 52 -17 97 -15 101
3 4 26 13 52 20 27 7 56 14 66 17 20 5 24 52 5 71 -12 12 -50 16 -60 7z"/>
<path d="M6555 9412 c-52 -25 -76 -53 -84 -99 -12 -67 2 -99 78 -177 77 -80
87 -110 51 -146 -36 -36 -108 -21 -159 34 -14 14 -33 26 -43 26 -21 0 -41 -44
-33 -71 7 -20 69 -66 118 -87 39 -17 122 -15 157 3 41 21 81 78 87 123 7 52
-14 91 -93 174 -37 38 -64 75 -64 87 0 21 32 61 49 61 21 0 65 -22 93 -45 38
-32 56 -32 69 2 15 40 -2 68 -60 97 -70 36 -117 41 -166 18z"/>
<path d="M3888 9388 c-36 -12 -36 -32 3 -138 17 -47 33 -94 36 -105 3 -11 9
-24 13 -30 4 -5 10 -23 14 -38 6 -25 5 -27 -11 -18 -10 5 -27 18 -38 28 -117
107 -217 193 -235 203 -18 10 -31 9 -66 -5 -50 -19 -55 -36 -30 -102 8 -21 35
-96 61 -168 93 -261 85 -246 124 -243 57 5 59 23 16 150 -21 62 -41 118 -45
123 -11 15 -23 75 -15 75 8 0 32 -21 185 -157 83 -75 110 -93 135 -93 35 0 75
24 75 46 0 23 -136 410 -160 454 -13 24 -30 29 -62 18z"/>
<path d="M6945 9252 c-93 -44 -175 -186 -175 -302 0 -126 66 -198 211 -230 49
-11 63 -10 107 4 128 43 234 254 192 381 -16 48 -72 111 -124 137 -58 30 -159
34 -211 10z m159 -86 c18 -7 42 -26 54 -41 53 -68 5 -237 -84 -296 -59 -39
-158 -13 -192 51 -20 39 -9 112 29 187 51 102 111 133 193 99z"/>
<path d="M3355 9177 c-23 -18 -19 -35 43 -168 27 -57 71 -152 98 -211 46 -102
51 -108 79 -108 44 0 59 13 52 47 -6 29 -182 418 -200 441 -12 16 -48 15 -72
-1z"/>
<path d="M3026 9008 l-25 -23 35 -220 c19 -121 38 -240 42 -264 9 -54 30 -71
66 -51 34 17 38 35 26 99 -5 29 -8 57 -5 61 3 5 39 28 81 50 l75 42 54 -42
c42 -32 59 -40 77 -35 64 20 63 50 -4 106 -29 24 -91 77 -138 119 -220 195
-233 203 -284 158z m153 -174 c80 -65 80 -69 20 -99 -28 -15 -53 -24 -57 -21
-5 6 -31 129 -32 154 0 20 10 15 69 -34z"/>
<path d="M7460 9007 c-48 -15 -130 -100 -163 -168 -53 -107 -45 -220 19 -284
51 -51 132 -85 202 -85 51 0 67 5 108 33 124 83 196 259 150 368 -20 47 -71
93 -136 123 -59 28 -119 32 -180 13z m149 -92 c16 -8 40 -28 55 -45 35 -42 34
-91 -4 -167 -73 -145 -167 -182 -258 -98 -34 31 -37 38 -36 87 0 57 24 112 71
168 55 66 115 85 172 55z"/>
<path d="M5060 8939 c-178 -9 -218 -14 -467 -54 -84 -14 -185 -34 -225 -46
-40 -12 -93 -27 -118 -34 -229 -65 -403 -131 -590 -225 -41 -21 -93 -45 -115
-55 -22 -9 -58 -28 -80 -42 -22 -13 -87 -52 -145 -87 -58 -34 -148 -94 -200
-134 -52 -39 -122 -91 -155 -116 -200 -149 -536 -493 -671 -686 -100 -144
-167 -246 -196 -298 -18 -31 -42 -71 -55 -88 -13 -17 -23 -34 -23 -38 0 -3
-32 -72 -70 -152 -39 -80 -70 -148 -70 -151 0 -3 -7 -19 -14 -36 -8 -18 -33
-86 -55 -152 -22 -66 -51 -149 -64 -185 -21 -59 -46 -159 -92 -371 -8 -37 -15
-80 -15 -95 0 -16 -4 -44 -10 -63 -13 -46 -32 -254 -49 -545 -6 -87 -12 -160
-15 -163 -7 -7 -69 -13 -206 -19 -97 -5 -128 -10 -138 -22 -14 -18 -16 -46 -3
-37 6 3 6 -6 1 -24 -4 -16 -6 -32 -3 -35 3 -3 7 -31 8 -63 4 -90 15 -185 25
-223 5 -19 16 -75 24 -125 9 -49 22 -121 31 -160 9 -38 19 -83 22 -99 4 -21 8
-25 15 -15 6 10 7 7 3 -8 -3 -12 1 -44 9 -70 9 -26 27 -88 42 -138 29 -100 81
-246 120 -333 14 -31 29 -66 34 -77 78 -179 223 -442 347 -625 34 -51 114
-154 201 -260 55 -66 149 -167 217 -234 33 -32 105 -102 160 -156 93 -91 284
-250 365 -304 180 -120 272 -175 368 -221 l73 -35 52 26 c128 65 287 168 326
213 24 27 143 111 158 111 25 0 250 160 332 236 95 89 95 91 -11 120 -32 9
-61 21 -64 25 -3 5 -12 9 -21 9 -9 0 -35 9 -57 19 -23 11 -102 48 -176 84
-121 57 -356 199 -480 289 -54 40 -230 199 -356 323 -243 239 -456 563 -605
920 -82 198 -173 484 -198 629 -35 198 -51 279 -55 283 -3 3 -85 1 -183 -4
-98 -6 -182 -8 -187 -5 -11 6 -1 454 13 542 5 36 15 106 21 155 23 187 106
529 155 640 7 17 22 57 33 90 45 132 137 327 233 494 108 185 121 206 143 231
13 14 32 39 42 55 116 188 440 527 690 722 80 63 380 260 464 305 47 25 99 53
115 62 82 44 253 118 317 137 40 11 78 25 83 29 6 4 44 17 85 30 41 12 95 28
120 35 25 8 61 17 80 20 19 4 49 10 65 15 241 69 512 100 864 100 312 0 548
-23 766 -75 182 -43 282 -71 385 -110 63 -23 130 -46 149 -50 40 -9 278 -119
401 -186 48 -26 156 -93 239 -148 83 -56 153 -101 157 -101 13 0 197 -153 292
-243 268 -255 375 -384 576 -696 47 -74 236 -438 236 -455 0 -5 22 -65 50
-135 71 -182 131 -385 146 -498 2 -18 9 -54 15 -80 14 -67 39 -210 44 -258 9
-91 19 -388 16 -462 -1 -8 -57 -12 -201 -15 -165 -2 -202 -6 -210 -18 -5 -8
-10 -44 -10 -80 -1 -120 -48 -401 -92 -555 -11 -38 -25 -90 -32 -115 -16 -55
-82 -227 -98 -255 -21 -37 -77 -150 -87 -175 -5 -14 -34 -63 -64 -110 -30 -47
-77 -120 -103 -162 -43 -68 -107 -155 -252 -343 -45 -58 -310 -313 -392 -377
-30 -23 -57 -45 -60 -48 -3 -3 -23 -18 -45 -35 -22 -16 -46 -35 -53 -42 -7 -7
-18 -13 -23 -13 -11 0 -138 -81 -160 -102 -8 -7 -54 -33 -102 -58 -49 -25 -96
-52 -105 -60 -9 -8 -21 -15 -27 -16 -10 0 -41 -13 -140 -59 -163 -75 -270
-112 -478 -164 -232 -59 -225 -54 -149 -97 26 -15 67 -39 92 -54 173 -106 336
-182 400 -188 30 -2 62 -10 70 -17 8 -8 27 -17 43 -20 15 -4 30 -11 33 -16 3
-5 17 -9 32 -9 41 0 77 -23 74 -46 -3 -22 16 -33 133 -79 39 -14 93 -36 120
-47 28 -12 102 -38 165 -59 l114 -39 61 28 c107 51 367 216 489 312 173 136
234 187 371 316 582 544 913 1073 1144 1829 40 132 108 460 116 559 2 23 8 82
14 131 6 50 11 127 11 172 0 68 -3 84 -17 92 -10 5 -107 12 -215 16 l-197 7
-10 32 c-6 17 -10 40 -10 51 3 106 -6 356 -13 384 -4 20 -11 68 -13 106 -3 39
-12 99 -21 135 -9 36 -18 76 -19 90 -10 88 -19 136 -25 145 -4 6 -11 30 -15
54 -4 24 -18 64 -31 89 -13 25 -24 57 -24 72 0 15 -3 30 -7 34 -4 3 -8 17 -10
29 -4 29 -34 119 -43 132 -4 6 -10 24 -14 40 -12 51 -49 137 -87 200 -20 33
-42 78 -49 100 -7 22 -16 45 -20 50 -4 6 -29 51 -55 100 -26 50 -64 113 -84
140 -20 28 -47 67 -60 88 -12 20 -27 37 -32 37 -5 0 -9 6 -9 13 0 14 -88 150
-117 182 -10 11 -26 31 -36 45 -19 27 -319 343 -351 369 -11 9 -40 35 -65 58
-26 23 -74 61 -108 85 -34 23 -89 64 -122 91 -34 26 -65 47 -71 47 -5 0 -13 6
-17 13 -15 25 -256 173 -373 229 -36 17 -105 50 -155 74 -183 88 -246 114
-391 162 -209 70 -409 123 -514 136 -14 2 -25 5 -25 6 0 2 -43 8 -95 15 -52 7
-111 16 -130 19 -39 7 -417 26 -465 24 -16 0 -95 -4 -175 -9z m-3813 -4101
c-3 -8 -6 -5 -6 6 -1 11 2 17 5 13 3 -3 4 -12 1 -19z"/>
<path d="M2640 8765 c-80 -57 -147 -111 -148 -120 -4 -17 24 -55 40 -55 5 0
33 15 63 34 43 28 56 32 68 23 14 -11 33 -37 175 -245 31 -45 65 -85 75 -88
23 -7 67 21 67 44 0 10 -30 61 -66 112 -37 52 -91 130 -121 173 l-54 79 48 34
c25 18 51 40 56 49 11 21 -17 65 -41 65 -9 -1 -82 -48 -162 -105z"/>
<path d="M8059 8573 c-30 -37 -68 -83 -85 -102 -107 -124 -164 -198 -164 -218
0 -28 106 -117 180 -151 102 -47 198 -24 285 69 88 95 112 199 67 292 -15 30
-51 71 -98 112 -99 86 -113 86 -185 -2z m136 -69 c19 -14 43 -45 55 -69 17
-35 19 -50 11 -84 -20 -91 -115 -181 -190 -181 -37 0 -126 51 -136 78 -4 11
210 282 223 282 2 0 19 -12 37 -26z"/>
<path d="M2377 8562 c-29 -32 -33 -25 152 -251 29 -37 74 -92 99 -123 30 -39
52 -58 67 -58 24 0 55 29 55 51 0 8 -57 84 -126 169 -194 238 -210 253 -247
212z"/>
<path d="M5110 8574 c-14 -3 -61 -16 -106 -30 -65 -20 -92 -35 -138 -76 -31
-28 -72 -74 -91 -102 -19 -28 -42 -61 -51 -74 -9 -12 -18 -33 -19 -47 -2 -13
-6 -28 -9 -33 -3 -5 -1 -49 5 -98 17 -154 77 -255 196 -332 107 -68 153 -82
273 -82 116 0 164 13 263 72 80 48 149 122 185 198 23 48 26 66 24 145 -3 120
-24 195 -74 264 -47 65 -122 137 -158 150 -102 38 -232 57 -300 45z"/>
<path d="M2173 8369 c-43 -21 -163 -138 -163 -159 0 -7 31 -44 69 -84 38 -39
119 -123 179 -186 l110 -115 29 21 c15 12 29 28 31 37 2 9 -29 51 -69 93 l-72
78 29 23 c35 29 64 26 154 -15 100 -46 106 -47 135 -18 16 16 22 31 18 42 -6
16 -101 64 -195 99 l-48 18 0 48 c0 37 -6 54 -26 79 -53 62 -108 74 -181 39z
m108 -111 c18 -28 9 -74 -19 -101 -15 -15 -33 -27 -39 -27 -13 0 -83 76 -83
90 0 5 12 21 28 35 22 22 34 25 66 21 21 -2 43 -10 47 -18z"/>
<path d="M6638 8300 c-94 -24 -245 -138 -302 -229 -109 -174 -75 -411 84 -573
99 -100 213 -148 355 -148 177 0 339 90 433 240 61 98 75 152 70 268 -3 84 -8
107 -37 169 -44 94 -145 195 -246 243 -67 33 -76 34 -195 37 -69 1 -142 -2
-162 -7z m274 -54 c52 -13 109 -33 128 -45 107 -64 201 -206 204 -305 1 -47
-1 -51 -24 -53 -78 -5 -323 -16 -372 -16 -32 1 -55 -3 -52 -8 3 -5 -2 -9 -10
-9 -9 0 -16 5 -16 10 0 16 -38 11 -48 -7 -7 -11 -15 -14 -28 -8 -26 12 -214
14 -214 3 0 -5 -6 -6 -12 -1 -7 4 -41 8 -76 9 -34 0 -68 6 -74 12 -16 16 16
146 51 207 60 105 154 176 276 209 120 31 150 32 267 2z m-374 -463 c-10 -2
-26 -2 -35 0 -10 3 -2 5 17 5 19 0 27 -2 18 -5z m65 0 c-7 -2 -21 -2 -30 0
-10 3 -4 5 12 5 17 0 24 -2 18 -5z m100 0 c-13 -2 -35 -2 -50 0 -16 2 -5 4 22
4 28 0 40 -2 28 -4z m90 0 c-7 -2 -19 -2 -25 0 -7 3 -2 5 12 5 14 0 19 -2 13
-5z m-290 -20 c-7 -2 -19 -2 -25 0 -7 3 -2 5 12 5 14 0 19 -2 13 -5z m183 -1
c14 -10 26 -42 14 -42 -5 0 -12 9 -15 20 -10 31 -39 26 -31 -5 4 -14 2 -25 -4
-25 -5 0 -10 3 -11 8 0 4 -2 17 -3 30 -2 16 2 22 18 22 12 0 26 -4 32 -8z
m-319 -24 c-3 -8 -6 -5 -6 6 -1 11 2 17 5 13 3 -3 4 -12 1 -19z m167 6 c14 -5
14 -9 4 -22 -11 -13 -10 -15 9 -10 13 4 25 3 28 -2 8 -14 -23 -32 -45 -25 -11
4 -20 2 -20 -4 0 -6 11 -11 24 -11 31 0 54 -26 38 -42 -9 -9 -12 -9 -12 0 0 7
-9 12 -20 12 -12 0 -32 12 -45 26 -24 26 -34 51 -16 40 5 -4 17 -3 26 1 15 5
15 8 -6 24 -24 18 -24 19 -2 19 12 0 29 -3 37 -6z m306 -4 c0 -5 -10 -10 -22
-10 -19 0 -20 2 -8 10 19 13 30 13 30 0z m358 -4 c-2 -1 -11 -8 -20 -15 -16
-12 -18 -11 -18 7 0 15 5 19 20 15 12 -3 19 -6 18 -7z m-238 -28 c0 -16 -3
-19 -11 -11 -6 6 -8 16 -5 22 11 17 16 13 16 -11z m-200 -8 c0 -11 -7 -20 -16
-20 -8 0 -12 -4 -9 -10 9 -15 19 -12 43 10 16 15 22 17 22 6 0 -7 7 -17 16
-20 30 -11 5 -20 -64 -22 -56 -2 -72 1 -94 20 l-28 22 29 2 c16 1 32 -2 36 -8
8 -13 25 -13 25 0 0 13 22 39 33 40 4 0 7 -9 7 -20z m235 0 c-3 -5 -10 -10
-16 -10 -5 0 -9 5 -9 10 0 6 7 10 16 10 8 0 12 -4 9 -10z m211 -17 c-10 -10
-19 5 -10 18 6 11 8 11 12 0 2 -7 1 -15 -2 -18z m-751 7 c3 -5 -1 -10 -9 -10
-9 0 -16 5 -16 10 0 6 4 10 9 10 6 0 13 -4 16 -10z m703 -39 c-13 -22 -29 -23
-36 -3 -2 7 2 10 11 6 8 -3 17 2 21 12 4 9 9 14 12 11 3 -3 -1 -15 -8 -26z
m-524 -2 c-7 -11 -34 -12 -34 -1 0 14 11 21 26 15 8 -3 11 -9 8 -14z m406 1
c0 -5 -7 -10 -15 -10 -8 0 -15 5 -15 10 0 6 7 10 15 10 8 0 15 -4 15 -10z
m-632 -14 c-7 -8 -15 -12 -17 -11 -5 6 10 25 20 25 5 0 4 -6 -3 -14z m472 4
c0 -5 -4 -10 -10 -10 -5 0 -10 5 -10 10 0 6 5 10 10 10 6 0 10 -4 10 -10z
m-386 -34 c27 -24 34 -46 16 -46 -6 0 -16 11 -22 25 -6 14 -17 25 -25 25 -7 0
-13 5 -13 10 0 17 18 11 44 -14z m186 15 c-8 -5 -26 -12 -39 -16 -21 -6 -22
-5 -10 8 8 9 25 16 39 16 19 0 21 -2 10 -8z m80 2 c-1 -18 -18 -35 -24 -24 -4
6 -4 16 -1 21 7 12 25 13 25 3z m420 -3 c0 -5 -2 -10 -4 -10 -3 0 -8 5 -11 10
-3 6 -1 10 4 10 6 0 11 -4 11 -10z m-250 -10 c0 -5 -7 -10 -15 -10 -8 0 -15 5
-15 10 0 6 7 10 15 10 8 0 15 -4 15 -10z m-365 -10 c3 -5 1 -18 -5 -27 -10
-16 -11 -16 -7 4 3 12 0 24 -7 27 -8 3 -8 5 1 5 6 1 15 -3 18 -9z m-90 -30 c3
-5 -1 -10 -9 -10 -9 0 -16 5 -16 10 0 6 4 10 9 10 6 0 13 -4 16 -10z m65 -45
c0 -8 -7 -15 -16 -15 -14 0 -14 3 -4 15 7 8 14 15 16 15 2 0 4 -7 4 -15z m457
-1 c-3 -3 -12 -4 -19 -1 -8 3 -5 6 6 6 11 1 17 -2 13 -5z m73 -19 c0 -1 -6 -7
-13 -13 -10 -8 -13 -6 -13 7 0 11 6 17 13 14 7 -3 13 -6 13 -8z m-273 -27 c-3
-8 -6 -5 -6 6 -1 11 2 17 5 13 3 -3 4 -12 1 -19z m-157 -8 c0 -5 -5 -10 -11
-10 -5 0 -7 5 -4 10 3 6 8 10 11 10 2 0 4 -4 4 -10z m330 -10 c0 -5 -5 -10
-11 -10 -5 0 -7 5 -4 10 3 6 8 10 11 10 2 0 4 -4 4 -10z m-150 -20 c18 5 30 5
30 -1 0 -5 -11 -9 -24 -9 -28 0 -54 -25 -34 -33 7 -3 1 -6 -14 -6 -31 -1 -36
15 -17 51 10 19 13 19 20 5 7 -12 16 -14 39 -7z m135 -18 c-3 -3 -11 0 -18 7
-9 10 -8 11 6 5 10 -3 15 -9 12 -12z m-257 1 c-10 -2 -28 -2 -40 0 -13 2 -5 4
17 4 22 1 32 -1 23 -4z m25 -14 c-6 -6 -19 -9 -29 -6 -16 4 -15 5 4 6 12 0 22
6 22 13 0 6 3 8 7 5 4 -4 2 -12 -4 -18z m197 5 c0 -2 -14 -4 -31 -4 -16 0 -28
4 -25 9 5 8 56 3 56 -5z m-66 -9 c7 -19 -13 -19 -38 0 -19 14 -19 15 6 15 14
0 28 -7 32 -15z"/>
<path d="M8466 8223 c-55 -14 -148 -90 -197 -159 -72 -105 -62 -191 35 -291
69 -70 118 -89 195 -78 63 9 115 38 179 99 94 88 124 191 83 281 -21 47 -98
120 -146 141 -33 13 -109 17 -149 7z m165 -119 c50 -46 63 -116 30 -170 -46
-75 -142 -144 -201 -144 -103 0 -171 125 -112 206 38 54 109 115 146 128 46
16 108 6 137 -20z"/>
<path d="M3429 8171 c-317 -67 -485 -391 -350 -674 101 -211 314 -305 571
-251 174 36 298 152 361 339 18 55 21 80 16 162 -4 86 -9 106 -40 168 -61 123
-126 180 -272 240 -45 19 -226 29 -286 16z m441 -146 l23 -25 -24 -26 c-47
-52 -251 -249 -265 -257 -8 -4 -14 -13 -14 -20 0 -7 66 -76 147 -154 l148
-141 -26 -27 c-38 -39 -49 -32 -220 133 -59 56 -115 102 -124 102 -10 0 -68
-50 -129 -111 -136 -135 -140 -139 -152 -139 -12 0 -54 38 -54 49 0 4 59 65
130 136 72 71 130 135 130 141 0 6 -30 37 -67 70 -118 104 -203 187 -203 199
0 6 11 22 24 34 29 28 34 25 129 -66 90 -85 183 -163 195 -163 6 0 77 65 159
145 81 80 153 145 159 145 6 0 21 -11 34 -25z"/>
<path d="M1837 8022 c-34 -23 -112 -108 -132 -143 -11 -20 -11 -30 -2 -46 18
-31 368 -323 388 -323 14 0 93 85 129 139 16 24 32 59 36 77 19 104 -56 194
-164 194 -34 0 -39 3 -51 35 -26 74 -138 110 -204 67z m113 -102 c11 -11 20
-30 20 -42 0 -24 -45 -88 -63 -88 -7 0 -32 17 -56 38 l-44 38 33 37 c37 43 78
49 110 17z m195 -125 c34 -33 31 -55 -16 -115 l-40 -51 -50 41 c-27 23 -49 49
-49 57 0 8 17 33 39 54 46 46 80 50 116 14z"/>
<path d="M1466 7548 c-18 -29 -64 -104 -101 -166 -65 -109 -67 -113 -50 -132
31 -34 57 -25 95 35 19 30 38 54 41 55 3 0 81 -45 172 -100 224 -134 205 -125
228 -104 10 9 19 29 19 44 0 25 -17 38 -180 136 -99 59 -180 114 -180 121 0 7
14 34 30 60 36 56 37 67 8 87 -35 25 -46 20 -82 -36z"/>
<path d="M8970 7554 c-74 -18 -180 -43 -235 -55 -94 -20 -145 -40 -145 -57 0
-4 10 -20 23 -35 l23 -29 62 12 c74 15 80 12 137 -82 l37 -60 -19 -26 c-11
-15 -30 -41 -42 -59 l-24 -31 22 -31 c12 -17 31 -31 42 -31 15 0 19 -7 19 -32
0 -173 161 -293 278 -208 56 40 64 60 70 170 2 57 10 104 18 118 14 22 48 29
70 14 20 -13 44 -70 44 -106 0 -43 12 -52 51 -36 38 16 45 47 24 110 -41 123
-139 173 -234 119 -52 -29 -71 -72 -72 -167 -1 -98 -9 -123 -41 -141 -55 -31
-103 21 -116 127 -6 53 -9 57 -34 60 -16 2 -28 6 -28 9 0 5 74 108 106 146 9
11 34 45 58 76 23 32 58 78 77 102 20 24 39 52 43 63 11 31 -41 99 -72 95 -4
0 -68 -16 -142 -35z m46 -119 c-14 -19 -38 -51 -52 -70 -15 -19 -30 -35 -35
-35 -12 0 -63 90 -54 98 9 10 115 40 144 41 l23 1 -26 -35z"/>
<path d="M5150 7453 c-299 -13 -589 -75 -860 -182 -61 -25 -274 -134 -333
-172 -425 -270 -746 -643 -934 -1084 -48 -111 -83 -212 -117 -336 l-23 -84
-54 5 c-137 12 -644 -9 -692 -28 -16 -7 -52 -12 -81 -12 -81 0 -86 -10 -86
-163 0 -124 0 -126 27 -146 29 -23 65 -35 85 -29 7 3 -5 11 -27 18 -22 7 -43
18 -47 23 -11 17 -7 247 5 254 5 3 42 8 81 10 39 2 88 11 108 19 30 14 57 15
152 9 64 -4 118 -10 121 -15 6 -10 -14 -168 -26 -197 -4 -12 -18 -23 -31 -26
l-23 -4 23 -2 c12 0 22 -2 22 -3 1 -2 3 -21 6 -43 6 -46 32 -121 51 -150 7
-11 13 -28 13 -38 0 -11 5 -15 11 -11 8 4 9 0 4 -15 -4 -12 -2 -21 4 -21 6 0
11 -15 11 -34 0 -54 11 -93 32 -115 21 -23 48 -30 30 -8 -5 6 -15 41 -21 77
-15 87 -30 140 -40 140 -5 0 -19 28 -32 63 -21 55 -24 76 -22 194 2 113 5 138
24 175 12 24 27 46 33 50 17 12 118 9 271 -7 77 -8 219 -16 315 -19 269 -8
488 -25 534 -43 23 -8 70 -18 106 -22 64 -8 108 -24 122 -45 4 -6 8 -31 8 -56
0 -69 15 -108 77 -200 l58 -84 90 -26 c50 -15 109 -36 132 -48 48 -25 53 -26
53 -12 0 17 -103 63 -174 76 -84 16 -105 34 -152 129 -19 38 -42 81 -49 95
-17 29 -20 90 -4 90 6 0 27 -12 46 -27 35 -26 42 -28 126 -25 102 3 143 -7
202 -52 22 -18 66 -42 95 -55 30 -13 74 -39 98 -59 23 -19 46 -32 49 -28 10 9
-87 92 -145 124 -79 44 -85 49 -78 61 5 7 49 11 130 11 87 0 134 4 159 15 26
11 73 15 164 15 87 0 136 4 154 13 59 32 419 25 442 -7 4 -6 12 -29 18 -51 6
-22 27 -71 47 -109 21 -41 35 -82 34 -100 -5 -127 -4 -142 16 -179 17 -33 20
-57 21 -181 0 -79 5 -156 11 -172 6 -16 28 -47 49 -69 21 -22 49 -56 62 -75
12 -19 62 -75 110 -125 47 -49 93 -104 102 -121 13 -25 31 -37 89 -58 92 -34
168 -90 168 -122 0 -20 -17 -17 -42 6 -22 20 -96 46 -105 36 -3 -2 12 -14 34
-25 49 -25 159 -136 190 -190 12 -23 23 -54 23 -70 0 -15 5 -42 11 -60 9 -27
8 -35 -6 -51 -18 -20 -11 -44 21 -70 9 -8 20 -23 25 -35 8 -16 8 -14 5 10 -2
17 -9 48 -14 70 -6 22 -16 72 -22 110 -7 39 -18 80 -26 92 -8 12 -14 33 -14
47 0 13 -6 26 -14 29 -16 6 -43 83 -33 93 7 7 58 -25 75 -48 22 -30 42 -22 42
16 0 19 3 41 6 50 7 18 24 22 24 6 0 -6 125 -133 277 -283 l277 -274 -68 -63
c-80 -76 -197 -170 -210 -170 -5 0 -76 66 -156 146 l-147 146 -5 -109 c-5
-120 -20 -164 -66 -186 -67 -34 -278 -53 -362 -34 -33 8 -34 7 -16 -7 11 -9
34 -16 52 -16 17 0 52 -3 78 -6 l46 -7 0 -118 0 -117 -62 -21 c-88 -29 -229
-61 -240 -55 -4 3 -8 90 -8 193 0 185 0 188 23 199 22 10 22 11 -5 11 -15 1
-51 12 -81 24 -29 13 -69 27 -89 31 -20 3 -51 17 -69 29 -76 51 -136 84 -164
91 -16 4 -66 24 -110 45 -44 21 -105 46 -135 56 -30 10 -75 32 -99 49 -41 30
-43 33 -38 73 2 24 3 43 0 43 -2 0 -11 -17 -20 -37 -13 -33 -17 -35 -23 -18
-5 13 2 34 22 64 15 25 28 57 28 72 0 15 4 30 9 33 4 3 11 24 15 47 6 39 4 46
-34 90 -47 56 -49 63 -15 47 14 -6 25 -16 25 -22 0 -5 12 -23 27 -38 26 -27
26 -29 14 -81 -7 -28 -19 -71 -27 -95 -17 -53 -17 -57 0 -43 8 6 16 22 19 34
22 88 31 116 66 189 22 46 51 98 65 117 14 19 26 41 26 48 0 7 5 13 10 13 13
0 95 -54 170 -111 45 -34 245 -139 266 -139 31 0 73 -31 110 -82 51 -70 66
-77 71 -33 3 18 -1 25 -12 25 -23 0 -75 54 -75 78 0 16 -9 20 -49 25 -76 9
-144 48 -175 101 -14 24 -26 53 -26 63 0 10 -32 47 -70 83 -55 50 -72 72 -73
95 -2 34 -12 32 123 16 41 -4 87 -12 103 -16 17 -4 27 -3 27 3 0 6 -17 14 -37
18 -21 3 -56 11 -78 16 -22 5 -56 12 -75 15 -19 2 -64 20 -100 38 -36 18 -85
38 -110 45 -25 7 -59 20 -76 31 -17 10 -62 26 -100 34 -63 15 -225 73 -266 95
-10 6 -25 10 -34 10 -9 0 -64 23 -122 50 -57 28 -106 49 -109 47 -11 -12 13
-37 40 -42 18 -4 46 -15 63 -25 17 -10 46 -21 63 -25 28 -6 69 -22 109 -43 19
-10 17 -25 -5 -37 -10 -5 -20 -13 -23 -16 -7 -8 -42 -21 -64 -24 -10 -1 -34 6
-54 17 -20 10 -49 18 -64 18 -16 0 -47 13 -70 30 -22 16 -52 30 -65 30 -30 0
-93 -28 -93 -42 0 -5 -4 -7 -9 -4 -5 3 -11 -8 -15 -25 -12 -62 56 -161 119
-173 74 -14 76 -12 -325 -412 -209 -208 -386 -380 -393 -382 -13 -3 -148 139
-216 226 l-34 44 99 99 c54 54 102 99 106 99 4 0 166 158 360 351 285 283 357
349 373 344 11 -3 34 -8 50 -10 29 -5 30 -5 5 6 -14 6 -33 15 -43 20 -9 5 -77
18 -150 28 -72 11 -166 25 -207 31 -41 6 -147 17 -235 24 -202 18 -343 33
-420 46 -33 6 -96 15 -140 20 -44 6 -87 13 -95 15 -8 3 -21 1 -28 -4 -9 -5 6
-10 40 -15 29 -3 78 -11 108 -16 30 -5 82 -12 115 -15 33 -3 67 -8 75 -11 8
-3 85 -12 170 -20 288 -27 268 -31 -166 -33 l-421 -1 -7 38 c-9 57 -7 72 9 72
8 0 15 4 15 10 0 21 -122 36 -235 29 -29 -2 -21 -4 29 -8 47 -4 71 -11 76 -21
4 -8 15 -64 25 -125 63 -416 264 -846 535 -1150 189 -212 344 -346 567 -487
91 -57 288 -153 398 -193 55 -20 110 -40 122 -45 21 -9 234 -59 338 -80 80
-16 259 -30 384 -30 368 0 759 92 1076 253 363 184 684 467 907 801 34 50 70
106 80 124 150 267 235 503 291 810 7 40 11 74 9 77 -3 3 -58 5 -122 5 -64 0
-120 3 -123 7 -4 3 6 29 22 57 34 61 44 115 35 204 l-7 67 -75 71 c-104 98
-90 112 69 74 46 -11 97 -28 113 -37 16 -9 43 -18 60 -20 17 -2 48 -17 69 -34
48 -39 63 -29 16 11 -42 36 -134 75 -217 91 -46 9 -66 18 -74 33 -6 12 -24 36
-39 54 -16 18 -29 41 -29 52 0 10 -4 22 -10 25 -5 3 -10 31 -10 61 0 34 -4 54
-11 54 -11 0 -10 -42 3 -135 2 -13 -5 -23 -19 -30 -32 -14 -28 -23 12 -31 33
-6 65 -37 48 -47 -20 -11 -102 -17 -108 -7 -3 5 -42 10 -90 10 -61 0 -86 4
-92 14 -4 7 -30 27 -58 44 -40 24 -66 31 -133 37 -77 6 -86 5 -127 -19 -68
-40 -86 -73 -84 -151 1 -36 0 -67 -2 -69 -3 -3 -26 8 -52 25 -26 16 -53 29
-60 29 -15 0 -47 -31 -47 -46 0 -18 185 -174 206 -174 23 0 36 29 30 64 -6 34
-6 35 21 30 15 -3 42 -16 60 -30 17 -13 42 -24 55 -24 25 0 71 -35 66 -50 -9
-27 -155 -173 -184 -185 -19 -8 -53 -35 -77 -61 -67 -74 -85 -82 -164 -72 -38
5 -79 17 -93 27 -14 10 -52 26 -85 36 -73 21 -85 30 -85 65 0 25 -23 61 -67
108 -7 7 -28 16 -47 19 -25 4 -42 16 -64 47 -42 59 -77 145 -65 157 6 6 75 28
153 50 79 21 148 43 154 48 7 6 50 29 96 52 47 22 99 51 115 63 17 12 61 35
98 51 38 16 87 45 110 64 23 20 60 50 82 66 22 16 84 73 138 126 74 75 104
113 127 162 17 36 30 70 30 76 0 6 4 19 9 29 5 9 23 47 40 85 16 37 37 70 46
73 26 10 132 -36 203 -89 37 -28 81 -56 98 -63 31 -13 99 -64 142 -106 12 -13
27 -41 32 -63 23 -93 36 -118 86 -172 30 -32 56 -67 60 -77 3 -10 27 -51 52
-90 79 -121 133 -229 139 -276 3 -25 13 -63 24 -85 10 -22 21 -64 25 -92 4
-29 10 -53 15 -53 15 0 10 65 -10 116 -10 27 -26 76 -36 109 -10 33 -24 71
-31 85 -7 14 -23 48 -35 75 -21 46 -105 184 -129 212 -6 7 -14 23 -19 35 -5
13 -32 51 -60 86 -28 34 -51 70 -51 80 0 10 -7 41 -15 70 -16 53 -64 102 -160
164 -34 22 -51 47 -112 169 -40 79 -93 176 -118 214 -51 78 -52 82 -25 255 36
229 -28 395 -172 450 -18 6 -42 16 -53 20 -112 45 -246 70 -372 70 -60 0 -122
-4 -140 -9 -27 -8 -39 -5 -75 18 -126 80 -395 190 -575 235 -211 54 -490 86
-673 79z m-390 -813 l0 -669 -132 -3 c-133 -3 -133 -3 -136 -28 -2 -13 -11
-30 -20 -36 -14 -10 -20 -9 -35 7 -10 10 -25 19 -33 19 -8 0 -29 10 -47 22
-39 28 -758 740 -755 749 5 11 153 141 205 180 29 21 58 39 66 39 7 0 139
-124 292 -275 153 -151 283 -275 288 -275 5 0 8 19 7 43 -1 23 -1 218 -1 434
l1 392 68 20 c91 27 182 49 210 50 l22 1 0 -670z m997 656 c81 -18 205 -55
216 -65 4 -4 8 -197 7 -428 0 -230 3 -422 7 -426 4 -4 83 68 175 160 l169 167
19 -29 c20 -30 28 -81 11 -71 -11 7 -33 -19 -35 -42 -2 -28 -50 -93 -114 -156
-35 -34 -58 -64 -55 -72 3 -8 0 -14 -6 -14 -6 0 -11 5 -11 10 0 6 -13 10 -30
10 -16 0 -30 -5 -30 -10 0 -10 -84 -9 -95 1 -3 3 -36 0 -73 -8 -37 -7 -92 -18
-122 -24 -30 -6 -66 -17 -81 -25 -15 -7 -29 -10 -33 -7 -8 9 -8 1028 1 1036 8
9 0 9 80 -7z m583 -286 c0 -5 -10 -15 -22 -21 l-23 -12 20 21 c23 24 25 25 25
12z m-63 -122 c-3 -8 -6 -5 -6 6 -1 11 2 17 5 13 3 -3 4 -12 1 -19z m190 -111
c34 -63 65 -107 77 -107 6 0 26 4 43 9 26 8 37 6 58 -11 35 -27 59 -75 65
-128 l5 -45 123 2 122 3 0 -24 c0 -26 -59 -119 -95 -151 -32 -28 -43 -151 -20
-219 l16 -47 -56 -104 c-62 -112 -160 -224 -249 -283 -60 -39 -81 -42 -70 -9
10 27 10 43 1 182 -4 61 -11 126 -17 145 -5 19 -10 55 -10 79 l0 44 52 -5 c40
-4 57 -11 75 -32 13 -15 23 -36 23 -47 0 -10 5 -19 10 -19 13 0 13 46 0 70 -8
16 -6 22 14 35 13 9 29 29 36 44 6 16 27 43 46 62 19 18 34 40 34 48 -1 17
-57 -38 -95 -92 -26 -36 -88 -51 -175 -42 -86 8 -128 22 -141 47 -14 27 -3 65
21 73 26 8 26 25 1 25 -11 0 -23 5 -27 11 -8 14 14 29 44 29 38 0 40 30 4 60
-37 31 -40 40 -12 33 24 -7 60 22 60 48 0 28 -17 31 -24 4 -4 -14 -13 -25 -21
-25 -25 0 -65 23 -65 37 0 20 36 87 54 102 20 17 21 61 1 87 -37 49 2 140 62
143 7 1 21 -14 30 -32z m-2965 -327 c34 -30 183 -174 331 -320 162 -162 267
-258 267 -248 0 10 4 18 9 18 5 0 12 12 16 27 6 26 21 43 38 43 4 0 -4 -21
-18 -47 -14 -27 -25 -53 -25 -60 0 -6 -6 -13 -12 -16 -10 -3 -8 -15 8 -48 19
-41 23 -129 6 -129 -4 0 -135 127 -292 282 -157 155 -327 323 -377 372 -51 50
-93 94 -93 97 0 11 64 88 72 86 3 -1 35 -27 70 -57z m2806 -178 c11 -17 10
-26 -3 -58 -20 -47 -24 -300 -6 -378 6 -26 14 -104 16 -172 4 -117 3 -125 -19
-151 -12 -15 -36 -49 -54 -74 -19 -28 -47 -53 -74 -66 -90 -44 -167 -73 -194
-73 -16 0 -58 -9 -92 -20 -79 -25 -79 -25 -87 1 -4 11 -19 35 -35 52 -15 18
-46 67 -68 109 l-40 78 30 22 c34 26 94 84 150 147 50 55 23 56 -59 1 -51 -35
-71 -42 -137 -49 -42 -5 -85 -16 -94 -24 -24 -20 -100 -37 -170 -37 -51 0 -60
3 -65 20 -4 15 -14 20 -42 20 -37 0 -58 16 -99 75 -10 15 -39 36 -65 47 -25
11 -53 26 -61 33 -18 16 -81 33 -97 28 -25 -9 -12 -21 30 -28 23 -4 53 -15 67
-24 14 -10 40 -24 58 -31 19 -7 44 -30 58 -51 27 -43 55 -64 97 -75 53 -13 8
-34 -94 -45 -110 -11 -267 0 -464 35 -44 8 -84 10 -88 6 -4 -4 20 -10 55 -13
98 -9 98 -9 98 -88 l0 -69 -67 -1 c-78 -1 -119 -11 -116 -27 4 -15 -24 -16
-29 -1 -2 7 -18 7 -48 1 -44 -9 -85 -8 -162 4 -21 4 -46 3 -55 -1 -10 -3 -20
-6 -23 -6 -3 0 -12 -7 -20 -14 -12 -11 -19 -11 -40 0 -14 7 -39 11 -57 8 -18
-3 -33 -1 -33 4 0 5 -16 7 -36 5 -25 -3 -32 -7 -23 -13 11 -7 10 -9 -4 -9 -20
0 -137 78 -137 91 0 5 91 10 203 11 l202 3 -84 88 -85 87 55 0 c105 0 129 -9
186 -68 30 -30 56 -53 58 -50 3 2 5 25 6 51 1 25 5 51 9 58 13 20 47 0 54 -31
4 -21 11 -30 25 -30 31 0 50 11 45 25 -3 8 0 39 6 69 9 43 9 74 0 130 -10 57
-10 78 0 96 12 23 14 23 134 17 66 -4 141 -12 166 -17 31 -8 64 -8 110 -1 36
6 118 12 183 14 128 2 119 6 132 -61 5 -24 16 -37 43 -51 47 -23 94 -32 132
-24 49 9 34 20 -34 25 -86 5 -116 26 -116 78 0 45 21 55 40 20 14 -26 52 -28
43 -2 -3 9 -12 24 -20 34 -13 14 -12 20 3 43 20 31 67 57 88 49 8 -3 22 -17
31 -30 28 -43 96 -23 109 32 5 20 1 35 -14 56 -12 16 -20 33 -18 37 2 4 31 33
65 65 60 56 62 57 165 76 56 11 117 23 133 28 17 5 98 8 180 6 136 -3 151 -5
163 -22z m-720 -112 c-4 -12 -120 -110 -130 -110 -5 0 20 27 54 60 60 56 84
72 76 50z m22 -110 c0 -5 -2 -10 -4 -10 -3 0 -8 5 -11 10 -3 6 -1 10 4 10 6 0
11 -4 11 -10z m1717 4 c-3 -3 -12 -4 -19 -1 -8 3 -5 6 6 6 11 1 17 -2 13 -5z
m-1746 -47 c-12 -12 -40 3 -34 18 4 11 9 12 24 2 10 -6 15 -15 10 -20z m-603
-56 c4 -12 -7 -13 -64 -8 -38 4 -89 8 -114 9 -25 1 -6 5 45 8 117 8 128 8 133
-9z m273 9 c6 0 7 -4 4 -10 -7 -12 -55 -13 -55 -2 0 15 13 23 28 17 7 -3 18
-5 23 -5z m-888 -51 c39 -16 78 -36 87 -44 8 -7 24 -15 35 -17 27 -5 40 -56
29 -119 -9 -52 -9 -52 -58 -66 -30 -9 -68 -12 -95 -9 -25 4 -81 9 -124 12 -56
5 -80 10 -84 21 -10 26 19 34 107 31 47 -2 87 -1 89 2 7 10 -20 90 -31 90 -6
0 -19 7 -29 16 -16 14 -18 14 -29 -5 -9 -18 -7 -23 15 -33 42 -19 31 -38 -23
-38 -42 0 -51 4 -71 31 -29 38 -22 76 24 124 41 44 64 44 158 4z m195 -21 c-5
-32 -28 -35 -28 -4 0 17 5 26 16 26 10 0 14 -7 12 -22z m-63 2 c-3 -5 -12 -10
-18 -10 -7 0 -6 4 3 10 19 12 23 12 15 0z m75 -152 c0 -51 -7 -78 -22 -78 -9
0 -10 86 0 128 8 37 22 5 22 -50z m1140 -128 c0 -5 -9 -8 -19 -7 -15 1 -17 4
-9 14 11 13 28 9 28 -7z m-2327 -29 c9 -1 17 -5 17 -11 0 -5 -31 -8 -72 -6
-102 5 -100 5 -93 17 5 6 30 8 69 5 33 -3 69 -5 79 -5z m80 -28 c-7 -2 -19 -2
-25 0 -7 3 -2 5 12 5 14 0 19 -2 13 -5z m105 0 c-16 -2 -40 -2 -55 0 -16 2 -3
4 27 4 30 0 43 -2 28 -4z m88 -12 c-3 -5 -15 -7 -26 -4 -28 7 -25 13 6 13 14
0 23 -4 20 -9z m1609 -90 c8 -14 -8 -21 -34 -14 -17 4 -19 8 -9 14 17 11 35
11 43 0z m-162 -8 c-7 -2 -19 -2 -25 0 -7 3 -2 5 12 5 14 0 19 -2 13 -5z m381
-42 c14 -21 32 -55 40 -75 8 -20 26 -51 40 -69 34 -45 33 -63 -6 -87 -44 -26
-54 -25 -70 8 -8 15 -19 36 -25 47 -6 11 -25 57 -43 103 -26 67 -30 85 -20 97
23 28 58 18 84 -24z m1391 -21 c20 -3 -23 -12 -119 -26 -39 -6 -48 -4 -44 7 8
23 68 30 163 19z m61 -44 c11 -8 35 -28 52 -44 19 -18 49 -33 72 -37 66 -11
228 -150 232 -199 3 -44 -5 -111 -14 -117 -13 -8 -64 10 -112 40 -24 15 -56
25 -85 26 -129 6 -193 18 -221 41 -15 13 -39 24 -53 24 -14 0 -35 9 -48 19
-36 30 -15 42 51 32 61 -10 71 -7 49 14 -9 10 -39 16 -79 18 -57 2 -65 4 -65
22 0 25 51 37 120 29 42 -5 48 -4 37 7 -15 16 -121 19 -164 5 -22 -6 -29 -5
-34 8 -4 9 -4 20 -1 23 12 11 182 22 192 12 14 -14 35 -11 29 5 -8 22 -55 35
-84 24 -32 -12 -122 -6 -127 9 -5 15 34 23 129 26 55 1 78 6 78 15 0 16 21 15
46 -2z m-281 -37 c4 -6 4 -26 1 -45 -5 -25 -12 -34 -26 -34 -16 0 -20 7 -20
33 0 44 29 73 45 46z m-126 -121 c74 -44 148 -138 109 -138 -30 0 -178 122
-178 147 0 19 28 16 69 -9z m142 -9 c16 -16 18 -24 9 -32 -9 -9 -16 -6 -31 12
-34 42 -16 58 22 20z m-1073 -236 c18 -38 47 -90 67 -117 19 -27 35 -54 35
-60 0 -6 6 -23 14 -37 76 -146 92 -168 213 -288 105 -104 153 -166 153 -196 0
-10 -30 -5 -104 19 -86 27 -136 72 -156 140 -26 89 -35 101 -104 135 -77 38
-126 90 -145 157 -8 27 -17 54 -21 59 -4 6 -10 56 -14 112 -7 98 1 143 23 143
4 0 22 -30 39 -67z m113 17 c99 -29 119 -51 119 -134 0 -69 -18 -175 -32 -191
-5 -6 -11 -1 -15 14 -9 34 -59 128 -99 183 -62 88 -94 168 -60 155 7 -3 47
-15 87 -27z m1466 0 c26 -16 52 -30 59 -30 24 0 38 -29 26 -55 -12 -26 -82
-75 -106 -75 -13 0 -106 159 -106 181 0 22 81 8 127 -21z m-267 10 c0 -5 -2
-10 -4 -10 -3 0 -8 5 -11 10 -3 6 -1 10 4 10 6 0 11 -4 11 -10z m101 -116 c13
-14 45 -41 70 -60 39 -28 55 -34 105 -35 32 -1 72 3 88 10 34 14 184 17 196 5
5 -5 7 -19 4 -32 l-6 -22 -435 0 c-420 0 -433 1 -424 19 14 25 79 81 94 81 8
0 26 14 42 30 28 30 30 30 135 30 102 0 108 -1 131 -26z m-984 -241 c31 -26
57 -64 99 -146 31 -62 62 -119 70 -127 7 -8 27 -44 45 -80 18 -36 46 -83 61
-104 30 -41 33 -53 19 -74 -13 -21 -64 16 -121 89 -28 35 -63 80 -79 99 -15
19 -40 62 -55 94 -27 62 -63 110 -135 184 -41 42 -66 86 -56 101 2 5 28 6 57
3 41 -4 62 -13 95 -39z m-1566 -174 c14 -10 53 -21 87 -25 60 -6 65 -5 121 30
33 20 67 36 76 36 26 0 122 -57 145 -87 11 -14 20 -35 20 -47 1 -38 37 -100
94 -161 57 -60 57 -60 42 -90 -8 -16 -20 -47 -27 -68 -15 -44 -40 -70 -60 -62
-8 3 -27 23 -43 45 -35 47 -148 106 -219 114 -30 4 -46 2 -42 -4 3 -6 20 -10
36 -10 17 0 39 -5 50 -10 18 -10 19 -28 19 -620 0 -373 -4 -610 -9 -610 -29 0
-205 46 -271 71 l-25 9 3 408 c1 225 -1 418 -5 429 -7 18 -42 -13 -286 -253
-153 -151 -283 -274 -290 -274 -17 0 -87 51 -87 64 0 6 148 159 330 341 l329
330 2 109 c1 82 -2 111 -12 117 -22 14 -1 10 29 -5 15 -7 43 -17 62 -20 l35
-7 -29 15 c-15 9 -33 16 -39 16 -6 0 -18 6 -26 13 -9 7 -54 30 -101 51 -100
44 -139 83 -140 137 0 42 19 63 70 77 29 7 43 5 85 -16 28 -14 61 -33 76 -43z
m1854 1 c1 -36 5 -81 9 -100 8 -31 7 -33 -6 -20 -22 22 -58 114 -58 148 0 35
8 44 35 40 18 -3 20 -10 20 -68z m390 -319 c195 -195 355 -358 355 -364 0 -12
-61 -82 -72 -82 -4 0 -143 132 -308 294 -165 162 -305 298 -311 302 -23 14
-51 215 -29 207 5 -1 169 -162 365 -357z m-1768 207 c-3 -8 -6 -5 -6 6 -1 11
2 17 5 13 3 -3 4 -12 1 -19z m283 -50 c0 -4 -4 -8 -10 -8 -5 0 -10 4 -10 9 0
5 -3 18 -6 28 -5 16 -4 16 10 -1 9 -11 16 -23 16 -28z m-184 -75 c25 -26 38
-32 63 -28 17 2 33 -1 36 -6 4 -5 16 -9 28 -9 16 0 18 -3 9 -12 -8 -8 -15 -8
-26 1 -9 7 -28 10 -48 6 -21 -4 -39 -1 -49 7 -28 22 -109 127 -108 140 0 7 14
-5 32 -27 18 -22 46 -54 63 -72z m194 27 c0 -5 -4 -10 -10 -10 -5 0 -10 5 -10
10 0 6 5 10 10 10 6 0 10 -4 10 -10z m-274 -659 c16 -13 20 -21 12 -23 -22 -8
-46 3 -51 23 -6 24 8 24 39 0z"/>
<path d="M6515 6649 c-62 -15 -67 -29 -9 -29 27 0 59 -3 72 -6 16 -5 22 -2 22
9 0 14 -31 40 -42 36 -2 -1 -21 -5 -43 -10z"/>
<path d="M6451 6577 c-10 -13 -9 -18 11 -30 35 -22 83 -28 104 -13 16 12 16
14 -8 30 -38 25 -91 31 -107 13z"/>
<path d="M6620 6509 c-14 -4 -37 -11 -52 -14 -31 -6 -83 -68 -94 -111 l-7 -29
22 19 c11 11 21 24 21 31 0 22 65 75 94 75 31 0 66 16 66 30 0 12 -15 11 -50
-1z"/>
<path d="M6847 6429 c-22 -23 -28 -34 -18 -37 7 -2 27 9 43 26 20 19 26 32 19
36 -6 4 -26 -7 -44 -25z"/>
<path d="M6036 5988 c-10 -36 -30 -76 -47 -96 -40 -45 -28 -55 16 -12 41 40
65 87 65 128 0 53 -16 43 -34 -20z"/>
<path d="M6000 5775 c-16 -31 -76 -76 -124 -92 -36 -11 -46 -33 -15 -33 27 0
124 63 145 95 9 13 14 32 12 42 -3 14 -7 12 -18 -12z"/>
<path d="M5832 5578 c9 -27 53 -38 132 -32 42 4 76 11 76 17 0 6 -27 7 -75 3
-59 -5 -81 -3 -106 9 -24 13 -30 13 -27 3z"/>
<path d="M4590 4140 c0 -5 5 -10 11 -10 5 0 7 5 4 10 -3 6 -8 10 -11 10 -2 0
-4 -4 -4 -10z"/>
<path d="M1187 7042 c-9 -10 -20 -32 -23 -49 -6 -30 3 -41 183 -222 104 -105
197 -191 206 -191 14 0 47 46 47 65 0 3 -20 27 -44 53 -25 26 -44 54 -43 62 2
8 18 48 37 88 l34 73 67 -3 c70 -2 93 7 102 42 11 42 -11 51 -168 65 -83 8
-193 19 -245 24 -127 14 -134 14 -153 -7z m258 -101 c25 -6 30 -11 28 -33 -2
-27 -30 -78 -43 -78 -12 0 -99 80 -111 101 -9 18 -6 19 43 18 29 -1 67 -4 83
-8z"/>
<path d="M7785 6999 c-96 -19 -186 -72 -263 -153 -84 -88 -107 -131 -122 -217
-25 -156 -2 -268 79 -387 152 -225 473 -288 707 -140 84 52 137 114 187 218
41 83 42 88 41 185 0 89 -4 109 -33 184 -52 130 -161 232 -308 287 -74 28
-209 39 -288 23z m228 -45 c33 -8 81 -26 106 -39 49 -24 93 -65 72 -65 -12 0
-200 -189 -228 -230 -34 -48 -48 -45 -126 27 -92 86 -169 155 -204 183 -36 28
-25 45 58 88 99 51 214 64 322 36z m294 -203 c51 -75 68 -139 68 -256 0 -103
-2 -114 -32 -178 -18 -37 -39 -70 -47 -73 -9 -4 -34 11 -63 39 -26 24 -82 75
-123 112 -89 80 -120 113 -120 126 0 5 57 68 128 140 70 72 126 136 124 142
-6 19 43 -20 65 -52z m-678 -25 c85 -81 87 -83 159 -144 34 -30 62 -60 62 -67
0 -6 -26 -39 -57 -72 -32 -33 -98 -102 -146 -152 -84 -88 -89 -92 -110 -78
-34 22 -93 151 -107 234 -11 60 -11 85 0 131 25 113 93 233 123 216 7 -4 41
-35 76 -68z m460 -420 c78 -71 141 -132 141 -136 0 -15 -112 -80 -172 -101
-125 -42 -289 -23 -397 46 l-43 26 98 102 c179 187 203 209 218 200 7 -4 77
-66 155 -137z"/>
<path d="M9362 6863 c-54 -26 -72 -62 -83 -164 -10 -100 -19 -125 -50 -134
-60 -19 -99 29 -108 135 -5 56 -9 65 -27 68 -42 6 -56 -24 -52 -107 3 -66 7
-82 35 -122 52 -74 133 -99 209 -63 56 27 76 65 88 170 12 98 29 134 66 134
35 0 60 -39 60 -94 0 -66 10 -81 46 -72 38 10 44 21 44 81 0 97 -73 185 -154
185 -23 0 -56 -8 -74 -17z"/>
<path d="M2415 6859 c-40 -9 -79 -25 -144 -57 -58 -29 -134 -106 -180 -183
-58 -97 -79 -205 -62 -323 15 -106 51 -175 136 -262 60 -61 80 -74 145 -97
134 -48 261 -52 372 -12 23 9 59 22 78 28 58 19 179 148 225 242 l40 80 0 126
c0 124 0 125 -37 201 -50 100 -145 191 -244 232 -59 25 -85 29 -179 32 -60 2
-128 -1 -150 -7z m289 -56 c73 -23 114 -50 176 -112 82 -83 109 -142 119 -259
7 -74 5 -110 -6 -155 -28 -109 -99 -205 -200 -273 -62 -41 -177 -86 -200 -77
-10 4 -13 44 -10 204 1 112 7 202 12 208 8 6 245 20 383 21 8 0 12 16 12 45
l0 45 -197 -3 -198 -2 -3 184 c-2 130 1 187 9 192 13 7 32 4 103 -18z m-202 5
c3 -7 4 -89 4 -182 -1 -153 -3 -169 -21 -182 -15 -11 -62 -14 -212 -14 -106 0
-193 3 -193 8 1 28 32 115 54 150 38 60 126 146 177 173 104 55 181 74 191 47z
m-2 -673 c0 -234 3 -227 -84 -205 -171 43 -299 173 -335 340 -7 30 -6 48 1 57
8 10 61 13 214 13 l204 0 0 -205z"/>
<path d="M1031 6678 c-25 -59 -71 -197 -71 -214 0 -7 12 -21 26 -30 25 -17
387 -146 446 -159 26 -6 43 22 81 130 53 150 51 142 23 160 -42 28 -59 13 -90
-81 -17 -47 -35 -88 -41 -90 -14 -6 -122 33 -131 47 -3 5 -2 15 3 22 13 17 33
90 33 120 0 28 -31 53 -54 44 -8 -3 -26 -39 -41 -81 -20 -55 -32 -76 -45 -76
-23 0 -87 27 -95 40 -3 5 6 46 21 91 30 90 26 112 -20 117 -23 3 -29 -3 -45
-40z"/>
<path d="M9380 6455 c-82 -23 -146 -70 -177 -130 -26 -50 -21 -149 12 -219 34
-70 80 -107 159 -126 49 -11 65 -11 133 4 113 25 171 59 211 126 31 51 33 60
29 119 -6 84 -48 165 -104 205 -38 26 -53 30 -125 33 -53 2 -103 -3 -138 -12z
m204 -100 c65 -31 94 -142 50 -193 -55 -67 -220 -105 -290 -67 -40 21 -64 68
-64 124 0 33 7 49 33 76 58 64 198 94 271 60z"/>
<path d="M954 6256 c-17 -7 -41 -27 -52 -44 -30 -41 -70 -207 -56 -230 11 -17
33 -23 343 -97 171 -40 184 -38 179 23 l-3 35 -85 22 c-125 31 -121 29 -108
65 13 39 40 56 98 65 130 19 148 25 159 56 11 33 6 55 -15 63 -17 7 -204 -28
-232 -43 -17 -9 -22 -6 -32 20 -7 16 -25 39 -41 50 -37 26 -114 34 -155 15z
m92 -96 c27 0 46 -45 39 -94 -7 -42 -10 -46 -34 -45 -14 0 -44 6 -66 13 -41
12 -42 14 -36 74 2 22 51 64 67 58 9 -3 22 -6 30 -6z"/>
<path d="M9484 5917 c-71 -18 -117 -50 -153 -103 -41 -63 -49 -123 -25 -193
30 -88 76 -131 124 -116 27 9 25 31 -6 77 -49 71 -40 164 21 204 63 41 185 52
252 21 56 -25 78 -111 48 -184 -20 -48 -13 -63 28 -63 51 0 71 28 75 110 7
111 -26 174 -114 226 -53 31 -170 41 -250 21z"/>
<path d="M7203 5853 c-13 -20 -18 -49 -19 -108 -1 -44 0 -62 2 -40 6 59 26
145 35 145 4 0 9 7 13 15 9 25 -12 17 -31 -12z"/>
<path d="M837 5802 c-61 -67 -77 -214 -32 -301 49 -97 134 -144 265 -145 94 0
142 17 191 71 51 54 69 105 69 194 0 91 -19 146 -54 154 -59 13 -210 23 -225
15 -13 -6 -21 -34 -30 -102 -11 -86 -11 -94 6 -106 22 -16 53 -12 64 8 4 8 11
33 16 55 7 34 12 40 37 43 16 2 44 1 63 -3 33 -6 33 -6 33 -64 0 -104 -63
-164 -174 -165 -71 0 -129 25 -170 74 -22 27 -26 41 -26 92 0 50 6 72 31 116
24 42 28 57 18 68 -16 20 -63 18 -82 -4z"/>
<path d="M2056 5418 c3 -48 11 -89 19 -98 8 -8 14 -19 14 -25 0 -5 4 -11 10
-13 15 -5 14 51 -1 66 -7 7 -15 43 -18 79 -3 40 -10 68 -17 70 -10 4 -11 -15
-7 -79z"/>
<path d="M9354 5442 c-21 -14 -32 -47 -23 -70 8 -20 44 -42 70 -42 18 0 49 40
49 63 0 43 -60 73 -96 49z"/>
<path d="M3354 5360 c-38 -25 -69 -96 -59 -139 10 -46 61 -108 107 -132 l43
-22 -63 61 -63 61 7 58 c8 74 18 92 55 100 16 3 29 12 29 19 0 19 -20 17 -56
-6z"/>
<path d="M2240 5303 c0 -5 13 -8 29 -8 16 0 33 3 37 8 4 4 -9 7 -29 7 -20 0
-37 -3 -37 -7z"/>
<path d="M2150 5270 c-8 -5 -11 -12 -7 -17 5 -4 11 -3 15 3 4 6 14 14 22 17
13 5 13 5 0 6 -8 0 -22 -3 -30 -9z"/>
<path d="M7603 5275 c14 -15 82 -34 90 -26 5 5 5 11 -1 15 -15 9 -98 19 -89
11z"/>
<path d="M7466 4921 c-3 -4 3 -16 14 -26 16 -14 43 -19 138 -23 83 -3 121 -1
126 7 5 8 -21 11 -91 11 -79 0 -107 4 -138 20 -45 23 -42 22 -49 11z"/>
<path d="M7673 4783 c20 -2 54 -2 75 0 20 2 3 4 -38 4 -41 0 -58 -2 -37 -4z"/>
<path d="M5545 4000 c22 -11 79 -31 127 -45 65 -19 92 -32 105 -51 74 -105
163 -184 251 -221 53 -22 36 2 -22 31 -30 15 -62 38 -70 51 -9 13 -32 33 -53
45 -21 12 -54 44 -73 72 -38 55 -74 75 -214 117 -85 26 -104 26 -51 1z"/>
<path d="M4977 2636 c-36 -13 -73 -38 -89 -61 -4 -5 -35 -11 -70 -12 -114 -4
-332 -31 -396 -48 -134 -37 -146 -116 -41 -270 62 -91 115 -140 235 -221 188
-125 361 -195 520 -211 55 -5 63 -3 73 14 10 20 12 20 58 5 26 -8 59 -24 72
-34 17 -13 41 -18 82 -18 50 0 59 3 64 21 14 42 -12 343 -46 552 -31 187 -63
236 -184 277 -69 24 -219 27 -278 6z"/>
<path d="M1725 2490 c-3 -5 -1 -10 4 -10 6 0 11 5 11 10 0 6 -2 10 -4 10 -3 0
-8 -4 -11 -10z"/>
<path d="M5585 2348 c4 -35 11 -67 15 -73 4 -5 8 -17 8 -25 1 -8 6 -73 12
-145 13 -157 13 -142 2 -240 -9 -76 -53 -226 -74 -252 -6 -7 -7 -13 -2 -13 5
0 5 -4 -1 -8 -9 -6 -39 -62 -160 -299 -23 -45 -47 -88 -52 -95 -20 -23 -27
-68 -12 -69 8 0 23 -2 34 -5 42 -8 291 -5 315 4 14 5 55 12 91 16 63 7 67 6
83 -18 9 -14 24 -26 34 -26 9 0 66 -20 127 -45 76 -30 113 -41 122 -34 13 11
103 169 152 267 17 34 46 104 63 155 31 89 32 98 33 257 0 186 -17 269 -64
314 -30 27 -255 146 -278 146 -8 0 -30 13 -47 28 -18 15 -72 49 -122 76 -49
26 -127 70 -174 97 -47 27 -91 49 -98 49 -11 0 -12 -13 -7 -62z"/>
<path d="M4126 2232 c-97 -77 -202 -156 -237 -177 -18 -11 -45 -28 -59 -37
-14 -10 -41 -27 -60 -38 -19 -11 -47 -28 -62 -38 -57 -37 -308 -182 -393 -228
-95 -50 -117 -61 -178 -89 -75 -35 -467 -321 -467 -342 0 -34 315 -206 402
-219 40 -6 109 -36 198 -85 73 -40 331 -159 346 -159 8 0 40 26 72 57 75 74
233 200 335 267 123 80 352 200 483 253 309 126 564 239 564 252 0 5 -23 18
-50 30 -219 94 -373 189 -494 305 -28 27 -69 61 -92 75 -22 15 -83 70 -135
124 -52 53 -99 97 -104 97 -6 0 -37 -21 -69 -48z"/>
<path d="M6506 1863 c9 -182 9 -339 1 -350 -5 -7 -7 -24 -5 -38 8 -39 -10
-116 -31 -139 -11 -12 -31 -47 -45 -78 -14 -31 -31 -60 -37 -63 -5 -4 -14 -17
-19 -29 -4 -12 -36 -59 -70 -105 -42 -55 -59 -86 -53 -92 13 -13 318 -126 387
-143 36 -9 60 -10 81 -3 53 17 419 197 440 216 25 23 141 83 215 111 66 26
194 88 270 131 30 17 75 42 100 56 78 44 150 94 150 103 0 14 -20 22 -175 74
-77 26 -149 51 -160 56 -11 4 -49 18 -85 30 -36 12 -74 25 -85 30 -11 4 -54
18 -95 30 -41 13 -88 28 -105 35 -16 7 -66 25 -110 40 -44 14 -89 30 -100 35
-19 9 -127 48 -275 100 -36 13 -69 26 -75 30 -11 8 -104 40 -116 40 -3 0 -5
-35 -3 -77z"/>
<path d="M5272 1605 c-34 -19 -77 -45 -95 -58 -17 -13 -45 -30 -62 -37 -16 -8
-32 -17 -35 -20 -3 -3 -35 -20 -72 -38 -38 -18 -68 -37 -68 -43 0 -5 -4 -7
-10 -4 -5 3 -29 -3 -52 -13 -24 -11 -65 -28 -93 -38 -27 -10 -53 -22 -56 -27
-3 -5 -10 -8 -15 -8 -42 4 -184 -37 -184 -53 0 -35 120 -93 219 -105 133 -16
307 19 389 79 80 58 264 343 249 384 -10 24 -46 18 -115 -19z"/>
</g>
</svg>
